<svg xmlns="http://www.w3.org/2000/svg" width="1600" height="900" viewBox="0 0 1600 900">
  <defs>
    <linearGradient id="bg" x1="0" y1="0" x2="1" y2="1">
      <stop offset="0" stop-color="#07131E"/>
      <stop offset="0.55" stop-color="#0A1C27"/>
      <stop offset="1" stop-color="#061019"/>
    </linearGradient>
    <radialGradient id="glow" cx="0.78" cy="0.05" r="0.65">
      <stop offset="0" stop-color="#00B894" stop-opacity="0.20"/>
      <stop offset="0.42" stop-color="#00A887" stop-opacity="0.06"/>
      <stop offset="1" stop-color="#00A887" stop-opacity="0"/>
    </radialGradient>
    <linearGradient id="gold" x1="0" y1="0" x2="1" y2="0">
      <stop offset="0" stop-color="#B88A36"/>
      <stop offset="0.5" stop-color="#E4C06B"/>
      <stop offset="1" stop-color="#A8792C"/>
    </linearGradient>
    <filter id="shadow" x="-20%" y="-20%" width="140%" height="160%">
      <feDropShadow dx="0" dy="12" stdDeviation="18" flood-color="#000000" flood-opacity="0.35"/>
    </filter>
    <pattern id="grid" width="48" height="48" patternUnits="userSpaceOnUse">
      <path d="M48 0H0V48" fill="none" stroke="#8CB3C2" stroke-opacity="0.035" stroke-width="1"/>
    </pattern>
  </defs>

  <rect width="1600" height="900" fill="url(#bg)"/>
  <rect width="1600" height="900" fill="url(#glow)"/>
  <rect width="1600" height="900" fill="url(#grid)"/>

  <g opacity="0.15" fill="none" stroke="#32D7B3" stroke-width="2">
    <path d="M0 310 L190 206 L330 280 L485 148 L650 288 L825 176 L1020 294 L1190 184 L1395 278 L1600 210"/>
    <path d="M0 343 L190 239 L330 313 L485 181 L650 321 L825 209 L1020 327 L1190 217 L1395 311 L1600 243" opacity="0.35"/>
  </g>

  <g font-family="Inter, Segoe UI, Arial, sans-serif">
    <text x="64" y="68" fill="#EAF4F5" font-size="26" font-weight="700" letter-spacing="1.6">HALYK BROKER</text>
    <text x="64" y="98" fill="#7F9AA6" font-size="14" letter-spacing="2.8">EXECUTIVE BI OVERVIEW</text>
    <rect x="64" y="119" width="94" height="3" rx="1.5" fill="url(#gold)"/>
    <text x="1538" y="72" text-anchor="end" fill="#708A96" font-size="13" letter-spacing="1.4">SYNTHETIC DEMO DATA</text>
  </g>

  <g filter="url(#shadow)">
    <rect x="64" y="156" width="278" height="132" rx="18" fill="#102632" fill-opacity="0.92" stroke="#244450"/>
    <rect x="362" y="156" width="278" height="132" rx="18" fill="#102632" fill-opacity="0.92" stroke="#244450"/>
    <rect x="660" y="156" width="278" height="132" rx="18" fill="#102632" fill-opacity="0.92" stroke="#244450"/>
    <rect x="958" y="156" width="278" height="132" rx="18" fill="#102632" fill-opacity="0.92" stroke="#244450"/>
    <rect x="1256" y="156" width="280" height="132" rx="18" fill="#102632" fill-opacity="0.92" stroke="#244450"/>
  </g>

  <g fill="#00B894">
    <rect x="64" y="156" width="5" height="132" rx="2.5"/>
    <rect x="362" y="156" width="5" height="132" rx="2.5"/>
    <rect x="660" y="156" width="5" height="132" rx="2.5"/>
    <rect x="958" y="156" width="5" height="132" rx="2.5"/>
    <rect x="1256" y="156" width="5" height="132" rx="2.5"/>
  </g>

  <g filter="url(#shadow)">
    <rect x="64" y="316" width="956" height="350" rx="22" fill="#0D222D" fill-opacity="0.94" stroke="#244450"/>
    <rect x="1040" y="316" width="496" height="350" rx="22" fill="#0D222D" fill-opacity="0.94" stroke="#244450"/>
    <rect x="64" y="686" width="724" height="158" rx="22" fill="#0D222D" fill-opacity="0.94" stroke="#244450"/>
    <rect x="808" y="686" width="728" height="158" rx="22" fill="#0D222D" fill-opacity="0.94" stroke="#244450"/>
  </g>

  <g font-family="Inter, Segoe UI, Arial, sans-serif" font-size="13" font-weight="600" letter-spacing="1.4" fill="#7F9AA6">
    <text x="92" y="350">ДИНАМИКА КОМИССИОННОГО ДОХОДА</text>
    <text x="1068" y="350">СТРУКТУРА ОБОРОТА</text>
    <text x="92" y="718">ДЕНЕЖНЫЙ ПОТОК</text>
    <text x="836" y="718">КЛИЕНТСКАЯ АКТИВНОСТЬ</text>
  </g>

  <g opacity="0.65">
    <circle cx="1490" cy="824" r="5" fill="#00B894"/>
    <text x="1476" y="830" text-anchor="end" font-family="Inter, Segoe UI, Arial, sans-serif" font-size="12" fill="#76909C">DATA READY</text>
  </g>
</svg>
